<?xml version="1.0" encoding="UTF-8"?>
<svg id="Capa_2" data-name="Capa 2" xmlns="http://www.w3.org/2000/svg" xmlns:xlink="http://www.w3.org/1999/xlink" viewBox="0 0 1025 861">
  <defs>
    <style>
      .cls-1 {
        opacity: .54;
        stroke: url(#Degradado_sin_nombre_32-18);
      }

      .cls-1, .cls-2, .cls-3, .cls-4, .cls-5, .cls-6, .cls-7, .cls-8, .cls-9, .cls-10, .cls-11, .cls-12, .cls-13, .cls-14, .cls-15, .cls-16, .cls-17, .cls-18, .cls-19, .cls-20, .cls-21, .cls-22, .cls-23, .cls-24, .cls-25, .cls-26, .cls-27, .cls-28, .cls-29, .cls-30, .cls-31, .cls-32, .cls-33, .cls-34, .cls-35 {
        stroke-linecap: round;
        stroke-linejoin: round;
        stroke-width: 6px;
      }

      .cls-1, .cls-3, .cls-4, .cls-5, .cls-6, .cls-7, .cls-8, .cls-9, .cls-10, .cls-11, .cls-12, .cls-13, .cls-14, .cls-15, .cls-16, .cls-17, .cls-18, .cls-19, .cls-20, .cls-21, .cls-24, .cls-25, .cls-26, .cls-36, .cls-27, .cls-28, .cls-29, .cls-30, .cls-31, .cls-32, .cls-33, .cls-35 {
        fill: none;
      }

      .cls-2 {
        stroke: url(#Degradado_sin_nombre_25);
      }

      .cls-2, .cls-22, .cls-23, .cls-34 {
        fill: #0e2c4a;
      }

      .cls-3 {
        stroke: url(#Degradado_sin_nombre_32-26);
      }

      .cls-3, .cls-4 {
        opacity: .5;
      }

      .cls-4 {
        stroke: url(#Degradado_sin_nombre_32-3);
      }

      .cls-5 {
        opacity: .85;
        stroke: url(#Degradado_sin_nombre_32-7);
      }

      .cls-6 {
        opacity: .18;
        stroke: url(#Degradado_sin_nombre_42);
      }

      .cls-7 {
        opacity: .36;
        stroke: url(#Degradado_sin_nombre_32-20);
      }

      .cls-8 {
        stroke: url(#Degradado_sin_nombre_32-6);
      }

      .cls-8, .cls-15 {
        opacity: 0;
      }

      .cls-9 {
        opacity: .4;
        stroke: url(#Degradado_sin_nombre_32-27);
      }

      .cls-10 {
        opacity: .16;
        stroke: url(#Degradado_sin_nombre_32-5);
      }

      .cls-11 {
        stroke: url(#Degradado_sin_nombre_32-14);
      }

      .cls-11, .cls-26 {
        opacity: .9;
      }

      .cls-12 {
        opacity: .27;
        stroke: url(#Degradado_sin_nombre_32-21);
      }

      .cls-13 {
        opacity: .42;
        stroke: url(#Degradado_sin_nombre_32-10);
      }

      .cls-37 {
        fill: #fff;
      }

      .cls-37, .cls-36 {
        stroke-width: 0px;
      }

      .cls-14 {
        opacity: .83;
        stroke: url(#Degradado_sin_nombre_32);
      }

      .cls-15 {
        stroke: url(#Degradado_sin_nombre_32-13);
      }

      .cls-16 {
        stroke: url(#Degradado_sin_nombre_32-16);
      }

      .cls-16, .cls-32 {
        opacity: .81;
      }

      .cls-17 {
        opacity: .33;
        stroke: url(#Degradado_sin_nombre_32-4);
      }

      .cls-18 {
        opacity: .57;
        stroke: url(#Degradado_sin_nombre_32-9);
      }

      .cls-19 {
        opacity: .7;
        stroke: url(#Degradado_sin_nombre_32-24);
      }

      .cls-20 {
        opacity: .45;
        stroke: url(#Degradado_sin_nombre_32-19);
      }

      .cls-21 {
        opacity: .28;
        stroke: url(#Degradado_sin_nombre_32-11);
      }

      .cls-38 {
        clip-path: url(#clippath);
      }

      .cls-22 {
        stroke: url(#Degradado_sin_nombre_25-3);
      }

      .cls-23 {
        stroke: url(#Degradado_sin_nombre_25-4);
      }

      .cls-24 {
        opacity: .71;
        stroke: url(#Degradado_sin_nombre_32-8);
      }

      .cls-25 {
        opacity: .6;
        stroke: url(#Degradado_sin_nombre_32-25);
      }

      .cls-26 {
        stroke: url(#Degradado_sin_nombre_32-22);
      }

      .cls-36 {
        isolation: isolate;
      }

      .cls-27 {
        opacity: .66;
        stroke: url(#Degradado_sin_nombre_32-2);
      }

      .cls-28 {
        opacity: .14;
        stroke: url(#Degradado_sin_nombre_32-12);
      }

      .cls-29 {
        opacity: .63;
        stroke: url(#Degradado_sin_nombre_32-17);
      }

      .cls-30 {
        opacity: .2;
        stroke: url(#Degradado_sin_nombre_32-29);
      }

      .cls-31 {
        opacity: .1;
        stroke: url(#Degradado_sin_nombre_32-30);
      }

      .cls-32 {
        stroke: url(#Degradado_sin_nombre_32-15);
      }

      .cls-33 {
        opacity: .8;
        stroke: url(#Degradado_sin_nombre_32-23);
      }

      .cls-34 {
        stroke: url(#Degradado_sin_nombre_25-2);
      }

      .cls-35 {
        opacity: .3;
        stroke: url(#Degradado_sin_nombre_32-28);
      }

   @keyframes gentle-wave {
        0% { 
            transform: translateY(0) rotate(0.3deg) scale(1);
        }
        30% { 
            transform: translateY(-10px) rotate(-0.7deg) scale(1.003);
        }
        60% { 
            transform: translateY(7px) rotate(0.6deg) scale(0.997);
        }
        100% { 
            transform: translateY(0) rotate(0.3deg) scale(1);
        }
    }
    
    .wave-group-1 {
        animation: gentle-wave 12s cubic-bezier(0.43, 0.13, 0.57, 0.87) infinite;
        transform-origin: 40% 55%;
    }
    .wave-group-2 {
        animation: gentle-wave 13s cubic-bezier(0.43, 0.13, 0.57, 0.87) infinite;
        transform-origin: 60% 45%;
        animation-delay: 1.8s;
    }
    .wave-group-3 {
        animation: gentle-wave 11s cubic-bezier(0.43, 0.13, 0.57, 0.87) infinite;
        transform-origin: 50% 60%;
        animation-delay: 1.1s;
    }
    .wave-group-4 {
        animation: gentle-wave 10s cubic-bezier(0.43, 0.13, 0.57, 0.87) infinite;
        transform-origin: 55% 50%;
        animation-delay: 2.4s;
    }

    /* Animación solo para los bordes */
    .wave-group-1 path,
    .wave-group-2 path,
    .wave-group-3 path,
    .wave-group-4 path {
        animation: 
            stroke-color-cycle 12000ms cubic-bezier(0.645, 0.045, 0.355, 1) infinite;
        fill: #0e2c4a !important; /* Fijo el color de fondo */
    }

    /* Asegurar que los fills no se animen */
    path[fill="#0e2c4a"] {
        animation: none !important;
    }
    </style>
    <clipPath id="clippath">
      <rect class="cls-36" width="1025" height="861"/>
    </clipPath>
    <linearGradient id="Degradado_sin_nombre_25" data-name="Degradado sin nombre 25" x1="-109.2" y1="537.21" x2="1683.09" y2="537.21" gradientUnits="userSpaceOnUse">
      <stop offset="0" stop-color="#0a7de5"/>
      <stop offset=".92" stop-color="#0a7de5" stop-opacity="0"/>
    </linearGradient>
    <linearGradient id="Degradado_sin_nombre_32" data-name="Degradado sin nombre 32" x1="-62.51" y1="537.21" x2="1658.12" y2="537.21" gradientUnits="userSpaceOnUse">
      <stop offset="0" stop-color="#0a7de5"/>
      <stop offset=".92" stop-color="#0a7de5" stop-opacity="0"/>
    </linearGradient>
    <linearGradient id="Degradado_sin_nombre_32-2" data-name="Degradado sin nombre 32" x1="-18.26" y1="537.61" x2="1633.12" y2="537.61" xlink:href="#Degradado_sin_nombre_32"/>
    <linearGradient id="Degradado_sin_nombre_32-3" data-name="Degradado sin nombre 32" x1="24.28" y1="540.69" x2="1608.12" y2="540.69" xlink:href="#Degradado_sin_nombre_32"/>
    <linearGradient id="Degradado_sin_nombre_32-4" data-name="Degradado sin nombre 32" x1="65.56" y1="547.02" x2="1583.12" y2="547.02" xlink:href="#Degradado_sin_nombre_32"/>
    <linearGradient id="Degradado_sin_nombre_32-5" data-name="Degradado sin nombre 32" x1="105.88" y1="554.63" x2="1558.12" y2="554.63" xlink:href="#Degradado_sin_nombre_32"/>
    <linearGradient id="Degradado_sin_nombre_32-6" data-name="Degradado sin nombre 32" x1="145.44" y1="562.12" x2="1533.12" y2="562.12" xlink:href="#Degradado_sin_nombre_32"/>
    <linearGradient id="Degradado_sin_nombre_25-2" data-name="Degradado sin nombre 25" x1="110.81" y1="583.61" x2="1322.4" y2="583.61" xlink:href="#Degradado_sin_nombre_25"/>
    <linearGradient id="Degradado_sin_nombre_32-7" data-name="Degradado sin nombre 32" x1="149.81" y1="587.64" x2="1297.44" y2="587.64" xlink:href="#Degradado_sin_nombre_32"/>
    <linearGradient id="Degradado_sin_nombre_32-8" data-name="Degradado sin nombre 32" x1="187.26" y1="592.83" x2="1272.44" y2="592.83" xlink:href="#Degradado_sin_nombre_32"/>
    <linearGradient id="Degradado_sin_nombre_32-9" data-name="Degradado sin nombre 32" x1="223.57" y1="599.46" x2="1247.44" y2="599.46" xlink:href="#Degradado_sin_nombre_32"/>
    <linearGradient id="Degradado_sin_nombre_32-10" data-name="Degradado sin nombre 32" x1="259.01" y1="607.56" x2="1222.44" y2="607.56" xlink:href="#Degradado_sin_nombre_32"/>
    <linearGradient id="Degradado_sin_nombre_32-11" data-name="Degradado sin nombre 32" x1="293.77" y1="616.94" x2="1197.44" y2="616.94" xlink:href="#Degradado_sin_nombre_32"/>
    <linearGradient id="Degradado_sin_nombre_32-12" data-name="Degradado sin nombre 32" x1="327.98" y1="627.18" x2="1172.44" y2="627.18" xlink:href="#Degradado_sin_nombre_32"/>
    <linearGradient id="Degradado_sin_nombre_32-13" data-name="Degradado sin nombre 32" x1="361.75" y1="637.84" x2="1147.44" y2="637.84" xlink:href="#Degradado_sin_nombre_32"/>
    <linearGradient id="Degradado_sin_nombre_25-3" data-name="Degradado sin nombre 25" x1="258.95" y1="492.74" x2="1595.01" y2="492.74" xlink:href="#Degradado_sin_nombre_25"/>
    <linearGradient id="Degradado_sin_nombre_32-14" data-name="Degradado sin nombre 32" x1="287.6" y1="508.17" x2="1568.02" y2="508.17" xlink:href="#Degradado_sin_nombre_32"/>
    <linearGradient id="Degradado_sin_nombre_32-15" data-name="Degradado sin nombre 32" x1="316.87" y1="524.03" x2="1538.58" y2="524.03" xlink:href="#Degradado_sin_nombre_32"/>
    <linearGradient id="Degradado_sin_nombre_32-16" data-name="Degradado sin nombre 32" x1="346.89" y1="540.35" x2="1506.37" y2="540.35" xlink:href="#Degradado_sin_nombre_32"/>
    <linearGradient id="Degradado_sin_nombre_32-17" data-name="Degradado sin nombre 32" x1="374.56" y1="557.02" x2="1471.03" y2="557.02" xlink:href="#Degradado_sin_nombre_32"/>
    <linearGradient id="Degradado_sin_nombre_32-18" data-name="Degradado sin nombre 32" x1="398.11" y1="566.45" x2="1432.25" y2="566.45" xlink:href="#Degradado_sin_nombre_32"/>
    <linearGradient id="Degradado_sin_nombre_32-19" data-name="Degradado sin nombre 32" x1="420.78" y1="583.11" x2="1389.87" y2="583.11" xlink:href="#Degradado_sin_nombre_32"/>
    <linearGradient id="Degradado_sin_nombre_32-20" data-name="Degradado sin nombre 32" x1="444.56" y1="610.72" x2="1344.06" y2="610.72" xlink:href="#Degradado_sin_nombre_32"/>
    <linearGradient id="Degradado_sin_nombre_32-21" data-name="Degradado sin nombre 32" x1="459.89" y1="641.73" x2="1295.78" y2="641.73" xlink:href="#Degradado_sin_nombre_32"/>
    <linearGradient id="Degradado_sin_nombre_42" data-name="Degradado sin nombre 42" x1="500" y1="666.48" x2="1246.93" y2="666.48" gradientUnits="userSpaceOnUse">
      <stop offset="0" stop-color="#0a7de5"/>
      <stop offset=".82" stop-color="#0a7de5" stop-opacity="0"/>
    </linearGradient>
    <linearGradient id="Degradado_sin_nombre_25-4" data-name="Degradado sin nombre 25" x1="529.17" y1="729.78" x2="1151.03" y2="729.78" xlink:href="#Degradado_sin_nombre_25"/>
    <linearGradient id="Degradado_sin_nombre_32-22" data-name="Degradado sin nombre 32" x1="578.18" y1="740.93" x2="1126.04" y2="740.93" xlink:href="#Degradado_sin_nombre_32"/>
    <linearGradient id="Degradado_sin_nombre_32-23" data-name="Degradado sin nombre 32" x1="628.11" y1="752.48" x2="1101.04" y2="752.48" xlink:href="#Degradado_sin_nombre_32"/>
    <linearGradient id="Degradado_sin_nombre_32-24" data-name="Degradado sin nombre 32" x1="679.81" y1="764.49" x2="1076.04" y2="764.49" xlink:href="#Degradado_sin_nombre_32"/>
    <linearGradient id="Degradado_sin_nombre_32-25" data-name="Degradado sin nombre 32" x1="734.61" y1="776.85" x2="1050.54" y2="776.85" xlink:href="#Degradado_sin_nombre_32"/>
    <linearGradient id="Degradado_sin_nombre_32-26" data-name="Degradado sin nombre 32" x1="795.71" y1="782.37" x2="1046.92" y2="782.37" xlink:href="#Degradado_sin_nombre_32"/>
    <linearGradient id="Degradado_sin_nombre_32-27" data-name="Degradado sin nombre 32" x1="840.92" y1="792.5" x2="1046.92" y2="792.5" xlink:href="#Degradado_sin_nombre_32"/>
    <linearGradient id="Degradado_sin_nombre_32-28" data-name="Degradado sin nombre 32" x1="861.58" y1="813.72" x2="1067.58" y2="813.72" xlink:href="#Degradado_sin_nombre_32"/>
    <linearGradient id="Degradado_sin_nombre_32-29" data-name="Degradado sin nombre 32" x1="882.23" y1="834.94" x2="1088.23" y2="834.94" xlink:href="#Degradado_sin_nombre_32"/>
    <linearGradient id="Degradado_sin_nombre_32-30" data-name="Degradado sin nombre 32" x1="902.88" y1="856.15" x2="1108.88" y2="856.15" xlink:href="#Degradado_sin_nombre_32"/>
  </defs>
  <g id="Capa_2-2" data-name="Capa 2">
    <g class="cls-38">
      <g class="wave-group-4">
        <path class="cls-2" d="m1413.01-227.47c-26.28-7.84-55.09,1.69-77.53,17.45-22.43,15.77-40.06,37.27-59.08,57.01-81.89,85-187.25,127.56-293.48,179-91.21,44.17-185.67,98.93-276.88,143.1-129.65,62.79-262.62,128-359.93,234.21-78.9,86.12-129.31,193.82-192.69,291.92-63.38,98.1-147.22,191.87-259.63,223.59,563.86,554.05,1369.18,457.27,1656.12,51.17,211.2-298.91,165.28-798.95-136.91-1197.47Z"/>
        <path class="cls-14" d="m803.82,1279.68c-75.07,0-151.15-7.34-226.13-21.8-77.88-15.03-155.11-37.87-229.54-67.88-148.67-59.96-285.63-147.71-407.67-261.12,84.85-35.88,161.72-108.29,233.94-220.07,20.02-30.99,38.94-63.22,57.24-94.39,39.5-67.28,80.34-136.86,132.88-194.21,42.08-45.93,95.2-88.1,162.38-128.91,62.25-37.82,130.12-70.69,190.01-99.69,46.04-22.3,93.45-47.56,139.31-71.99,45.43-24.21,92.41-49.23,137.58-71.11,14.41-6.98,29.06-13.92,43.23-20.62,94.35-44.67,183.48-86.86,257.35-163.53,4.54-4.71,9-9.51,13.31-14.16,13.9-14.98,27.03-29.12,42.15-39.75,14.41-10.13,29.87-15.7,43.52-15.7,1.79,0,3.56.1,5.28.3,69.97,93.56,127.06,194.46,169.76,300.07,42.21,104.39,69.37,210.77,80.72,316.2,11.2,103.99,6.68,203.66-13.44,296.23-20.35,93.67-56.08,177.13-106.19,248.05-69.48,98.34-172.95,180.26-299.22,236.91-127.15,57.04-274.63,87.2-426.43,87.2h-.03Z"/>
        <path class="cls-27" d="m803.82,1254.68c-73.48,0-147.97-7.18-221.39-21.35-76.31-14.72-151.98-37.11-224.92-66.52-134.73-54.34-259.98-132.17-372.76-231.59,75.97-41.47,145.2-111.48,210.69-212.84,20.32-31.45,39.37-63.91,57.8-95.3,38.84-66.17,79-134.58,129.76-189.98,40.46-44.16,91.79-84.87,156.93-124.44,61.23-37.2,128.53-69.79,187.91-98.54,46.5-22.52,94.13-47.89,140.18-72.43,45.22-24.09,91.97-49,136.72-70.67,14.4-6.97,28.96-13.86,43.03-20.53,96.48-45.67,187.61-88.81,264.66-168.79,4.71-4.89,9.24-9.77,13.63-14.5,12.98-13.99,25.24-27.19,38.2-36.3,7.48-5.25,15.25-8.85,22.2-10.36,65.12,88.85,118.52,184.31,158.8,283.93,41.34,102.25,67.93,206.38,79.04,309.5,10.91,101.32,6.54,198.29-13.01,288.24-19.64,90.38-54.02,170.77-102.18,238.93-66.9,94.69-166.85,173.71-289.04,228.52-123.97,55.61-267.89,85.01-416.2,85.01h-.03Z"/>
        <path class="cls-4" d="m803.82,1229.68c-71.89,0-144.79-7.03-216.66-20.9-74.73-14.42-148.86-36.34-220.31-65.16-121.71-49.08-235.79-117.91-339.57-204.81,67.77-44.48,129.92-111.19,189.14-202.87,20.62-31.91,39.8-64.6,58.36-96.21,38.18-65.05,77.66-132.3,126.63-185.75,38.84-42.4,88.39-81.64,151.47-119.96,60.22-36.58,126.95-68.9,185.82-97.41,46.95-22.74,94.78-48.22,141.04-72.87,45.04-24,91.56-48.78,135.86-70.24,14.37-6.96,28.84-13.81,42.83-20.43,98.61-46.68,191.75-90.77,271.97-174.04,4.9-5.09,9.5-10.05,13.95-14.84,11.87-12.79,23.09-24.88,33.74-32.49,58.56,82.49,106.94,170.57,143.96,262.13,40.47,100.1,66.5,201.98,77.36,302.81,10.62,98.64,6.39,192.94-12.58,280.26-18.92,87.08-51.95,164.4-98.17,229.81-64.32,91.04-160.75,167.16-278.85,220.14-120.77,54.18-261.15,82.82-405.97,82.82h-.03Z"/>
        <path class="cls-17" d="m803.82,1204.68c-70.31,0-141.61-6.88-211.92-20.44-73.16-14.12-145.73-35.58-215.7-63.8-109.38-44.11-212.73-104.66-307.64-180.2,60.08-45.52,115.56-108.24,168.86-190.73,20.9-32.35,40.22-65.27,58.91-97.1,37.54-63.94,76.34-130.04,123.52-181.54,37.23-40.63,84.99-78.4,146.02-115.48,59.2-35.97,125.36-68,183.73-96.27,47.4-22.95,95.45-48.55,141.91-73.31,44.83-23.89,91.15-48.56,135-69.8,14.32-6.94,28.71-13.75,42.63-20.33,100.74-47.69,195.88-92.73,279.28-179.29,5.08-5.27,9.75-10.31,14.27-15.17,3.79-4.09,7.51-8.09,11.11-11.84,50.25,74.14,92.27,152.68,125.09,233.85,39.61,97.96,65.07,197.59,75.68,296.12,10.34,95.97,6.25,187.58-12.16,272.27-18.21,83.79-49.89,158.04-94.16,220.69-61.74,87.38-154.64,160.6-268.67,211.76-117.58,52.75-254.42,80.63-395.74,80.63h-.03Z"/>
        <path class="cls-10" d="m803.82,1179.68c-68.72,0-138.43-6.73-207.18-19.99-71.59-13.81-142.6-34.82-211.08-62.44-97.61-39.36-190.54-92.24-276.68-157.37,52.81-45,101.95-103.14,149.54-176.81,21.21-32.82,40.66-65.96,59.47-98.01,36.88-62.82,75-127.76,120.39-177.31,35.6-38.86,81.58-75.17,140.57-111,58.19-35.35,123.78-67.11,181.65-95.14,47.83-23.16,96.1-48.88,142.77-73.75,44.64-23.78,90.74-48.34,134.14-69.36,14.22-6.88,28.55-13.67,42.41-20.23,102.88-48.7,200.04-94.7,286.6-184.55,1.35-1.4,2.67-2.78,3.96-4.14,41.67,64.89,77.04,133.05,105.33,203,38.74,95.82,63.64,193.19,74,289.42,10.05,93.3,6.1,182.22-11.73,264.29-17.49,80.49-47.82,151.68-90.14,211.58-59.16,83.73-148.54,154.05-258.48,203.37-114.38,51.31-247.69,78.44-385.5,78.44h-.03Z"/>
        <path class="cls-8" d="m803.82,1154.68c-67.14,0-135.25-6.58-202.45-19.54-70.01-13.51-139.48-34.06-206.47-61.08-86.28-34.8-169.06-80.51-246.46-136.08,45.88-43.2,88.94-96.27,130.98-161.34,21.49-33.26,41.07-66.63,60.01-98.89,36.23-61.72,73.68-125.51,117.28-173.1,33.99-37.09,78.18-71.94,135.11-106.52,57.17-34.73,122.19-66.22,179.56-94,48.27-23.37,96.74-49.2,143.62-74.18,44.42-23.67,90.33-48.13,133.3-68.94,14.12-6.84,28.4-13.6,42.21-20.13,97.81-46.3,190.57-90.21,275.36-171.31,33.72,55.56,62.81,113.42,86.66,172.4,37.87,93.68,62.21,188.8,72.32,282.73,9.76,90.63,5.96,176.86-11.3,256.3-16.78,77.2-45.75,145.31-86.13,202.46-56.58,80.07-142.44,147.5-248.3,194.99-111.19,49.88-240.96,76.25-375.27,76.25h-.03Z"/>
      </g>
      <g class="wave-group-3">
        <path class="cls-34" d="m1081.26,17.33c258.57,268.99,304.09,654.28,148.67,882.67-198.93,292.31-745.05,368.53-1116.11,8.46,76.64-49.45,115.77-139.12,147.16-224.76,31.39-85.64,61.85-176.54,129.45-237.77,132.41-119.92,355.16-82.1,491.82-197.16,77.51-65.26,113.55-177.01,199.01-231.44Z"/>
        <path class="cls-5" d="m696.15,1124.89c-199.02,0-390.85-75.82-543.33-214.12,67.84-56.29,103.42-141.51,131.63-218.47,1.77-4.82,3.53-9.66,5.3-14.51,28.63-78.51,58.24-159.7,117.46-213.34,62.41-56.52,147.42-75.47,237.43-95.52,89.4-19.92,181.83-40.52,253.71-101.04,37.71-31.75,65.69-72.85,92.75-112.61,27.15-39.89,53.01-77.88,86.88-104.9,54.41,59.49,99.78,125.76,135.02,197.28,36.49,74.04,61.09,151.42,73.12,230.01,11.74,76.68,11.05,151.13-2.08,221.29-13.19,70.52-38.35,133.42-74.8,186.97-49.25,72.38-122.76,132.78-212.57,174.68-90.15,42.05-194.07,64.28-300.53,64.28Z"/>
        <path class="cls-24" d="m696.15,1099.89c-95.82,0-190.01-17.98-279.95-53.46-81.62-32.19-157.51-77.9-225.94-136.05,59.2-59.36,91.67-138.6,117.65-209.49,1.76-4.81,3.52-9.63,5.29-14.47,27.62-75.74,56.15-153.97,110.79-203.45,57.51-52.09,139.39-70.34,226.08-89.65,92.34-20.58,187.81-41.85,264.38-106.31,40.34-33.96,69.3-76.51,97.31-117.66,21.02-30.88,41.1-60.38,64.21-83.58,45.56,52.87,84.05,110.94,114.6,172.94,35.36,71.74,59.19,146.69,70.84,222.75,11.32,73.9,10.67,145.53-1.94,212.91-12.55,67.1-36.4,126.82-70.89,177.5-46.72,68.66-116.74,126.09-202.47,166.09-86.86,40.52-187.13,61.94-289.96,61.94Z"/>
        <path class="cls-18" d="m696.15,1074.89c-92.67,0-183.77-17.4-270.78-51.71-71.06-28.03-137.83-66.76-198.81-115.29,51.45-60.14,80.98-133.35,104.82-198.38,1.77-4.82,3.53-9.66,5.3-14.51,26.56-72.84,54.03-148.16,104.08-193.49,52.62-47.66,131.37-65.2,214.74-83.78,95.28-21.23,193.79-43.19,275.04-111.59,42.97-36.18,72.92-80.17,101.88-122.72,14.46-21.25,28.35-41.66,42.84-59.41,36.29,45.26,67.47,94.17,92.89,145.75,34.22,69.45,57.29,141.95,68.55,215.48,10.89,71.11,10.29,139.92-1.8,204.52-11.91,63.69-34.45,120.22-66.98,168.03-44.19,64.94-110.72,119.4-192.38,157.5-83.57,38.99-180.18,59.6-279.39,59.6Z"/>
        <path class="cls-13" d="m696.15,1049.89c-89.52,0-177.53-16.81-261.6-49.97-61.04-24.07-118.97-56.42-172.54-96.3,44.43-59.12,71.12-126.23,92.85-185.52,1.7-4.63,3.39-9.28,5.09-13.93l.22-.61c25.52-69.98,51.91-142.35,97.38-183.52,47.72-43.22,123.34-60.07,203.39-77.91,98.21-21.89,199.77-44.52,285.71-116.87,45.6-38.39,76.52-83.82,106.43-127.76,7.61-11.18,15-22.03,22.32-32.29,26.87,36.52,50.46,75.28,70.33,115.59,33.09,67.16,55.39,137.21,66.26,208.22,10.46,68.32,9.9,134.31-1.66,196.14-11.27,60.28-32.5,113.62-63.08,158.56-41.66,61.22-104.69,112.71-182.28,148.9-80.28,37.46-173.24,57.25-268.82,57.25Z"/>
        <path class="cls-21" d="m696.15,1024.89c-86.37,0-171.3-16.23-252.43-48.23-51.45-20.29-100.78-46.76-146.95-78.83,38.02-56.65,61.93-117.55,81.56-171.12,1.66-4.54,3.32-9.09,4.99-13.65l.34-.94c24.48-67.12,49.79-136.53,90.67-173.55,42.83-38.79,115.31-54.94,192.04-72.04,101.16-22.54,205.76-45.85,296.37-122.14,48.23-40.6,80.14-87.48,111-132.81.59-.87,1.19-1.74,1.78-2.61,17.75,26.68,33.76,54.44,47.78,82.89,31.96,64.86,53.49,132.47,63.98,200.95,10.04,65.53,9.52,128.7-1.52,187.76-10.63,56.86-30.54,107.03-59.17,149.09-39.13,57.5-98.67,106.02-172.18,140.31-76.99,35.92-166.3,54.91-258.26,54.91Z"/>
        <path class="cls-28" d="m696.15,999.89c-83.21,0-165.06-15.64-243.26-46.48-42.25-16.66-83.16-37.72-121.91-62.74,32.12-52.98,53.29-107.51,70.82-155.35,1.56-4.25,3.12-8.52,4.68-12.8l.67-1.83c23.44-64.27,47.67-130.72,83.97-163.59,37.93-34.35,107.28-49.81,180.7-66.17,104.09-23.2,211.73-47.18,307.04-127.42,40.45-34.05,69.54-71.59,95.76-109.05,9.42,15.88,18.21,32.08,26.27,48.45,30.83,62.57,51.59,127.73,61.69,193.68,9.61,62.74,9.14,123.09-1.39,179.38-10,53.45-28.59,100.43-55.27,139.63-36.6,53.79-92.65,99.33-162.08,131.72-73.71,34.39-159.35,52.56-247.69,52.56Z"/>
        <path class="cls-15" d="m696.15,974.89c-80.06,0-158.82-15.05-234.09-44.74-33.39-13.17-66.02-29.25-97.31-47.93,26.68-48.26,45.12-96.26,60.52-138.3,1.55-4.23,3.1-8.49,4.66-12.75l.7-1.91c22.39-61.41,45.55-124.91,77.26-153.62,33.03-29.92,99.25-44.67,169.35-60.3,107.03-23.85,217.71-48.51,317.7-132.7,31.22-26.28,56.1-54.79,76.83-81.85,2.28,4.39,4.51,8.78,6.68,13.18,29.7,60.28,49.69,123,59.4,186.42,9.18,59.95,8.76,117.48-1.25,171-9.36,50.04-26.64,93.83-51.36,130.16-34.07,50.07-86.63,92.65-151.98,123.13-70.42,32.85-152.41,50.22-237.12,50.22Z"/>
      </g>
      <g class="wave-group-2">
        <path class="cls-22" d="m1592.01-50.24c-47.01,40.72-284.78,244.83-398.34,272.86-5.18,1.28-68.67,16.65-155.17,34.69-34.96,7.29-47.44,9.54-55.58,11.36-97.99,21.89-166.54,114.72-209,161.33-140.91,154.7-253.62,85.03-388,230-43.34,46.76-96.13,123.61-123.98,250.96,99.55,55.57,337.15,168.28,607.98,107.04,399.7-90.38,713.61-523.89,722.09-1068.24Z"/>
        <path class="cls-11" d="m709.55,1010.72c-170.19,0-319.23-59.22-418.95-112.59,22.11-89.25,60.3-163.58,113.66-221.14,61.51-66.36,117.83-84.38,177.45-103.45,66.11-21.15,134.48-43.02,210.7-126.71,5.88-6.46,12.19-13.71,18.87-21.39,42.31-48.62,100.26-115.22,177.1-132.38,3.33-.74,7.74-1.63,14.41-2.96,8.46-1.69,21.25-4.25,40.82-8.33,90.83-18.94,155.45-34.74,156.06-34.89,94.81-23.41,264.72-156.83,365.36-241.28-6.13,110.68-25.28,218.27-57.08,320.58-35.69,114.82-86.44,220.38-150.85,313.73-63.34,91.82-137.88,168.97-221.54,229.31-84.54,60.97-175.76,102.82-271.15,124.39-50.2,11.35-102.3,17.11-154.85,17.11Z"/>
        <path class="cls-32" d="m709.55,985.72c-157.11,0-295.96-52.65-389.68-100.5,21.59-76.68,56.1-140.94,102.72-191.24,57.05-61.54,107.87-77.81,166.73-96.63,66.02-21.12,140.84-45.06,221.57-133.69,6.06-6.66,12.45-14,19.21-21.76,40.08-46.05,94.91-109.06,163.73-124.44,3.06-.68,7.36-1.54,13.86-2.84,8.52-1.7,21.37-4.27,41.02-8.37,91.18-19.01,156.33-34.94,156.95-35.09,84-20.74,218.3-118.16,329.93-208.82-8.7,88.2-25.97,174.22-51.52,256.42-34.94,112.41-84.58,215.68-147.55,306.96-61.72,89.46-134.25,164.57-215.58,223.23-81.79,58.99-169.95,99.46-262.04,120.28-48.4,10.94-98.65,16.49-149.34,16.49h0Z"/>
        <path class="cls-16" d="m709.56,960.72c-143.82,0-272.15-46.12-359.66-88.49,20.64-64.11,51.21-118.29,91.03-161.25,52.59-56.73,98.23-71.33,156.01-89.82,65.59-20.98,147.21-47.1,232.44-140.67,6.24-6.85,12.71-14.29,19.56-22.15,37.81-43.45,89.55-102.9,150.35-116.49,2.79-.62,6.98-1.46,13.31-2.72,8.54-1.71,21.46-4.29,41.22-8.41,92.11-19.2,157.19-35.13,157.83-35.29,65.16-16.09,163.16-75.04,291.74-175.46-9.55,65.55-24.01,129.69-43.18,191.37-34.19,109.99-82.72,210.99-144.26,300.18-60.09,87.11-130.62,160.17-209.63,217.15-79.05,57.01-164.14,96.09-252.92,116.17-46.58,10.54-94.98,15.88-143.83,15.88h0Z"/>
        <path class="cls-29" d="m709.56,935.72c-130.24,0-250.95-31.48-332-68.39,19.13-51.58,48.76-103.81,81.71-139.35,48.12-51.91,88.88-64.95,145.29-83,68.43-21.89,153.58-49.13,243.3-147.64,6.43-7.06,12.98-14.59,19.92-22.56,35.53-40.83,84.17-96.72,136.96-108.52,2.5-.56,6.55-1.37,12.67-2.59,8.68-1.73,21.65-4.33,41.51-8.47,92.09-19.2,158.05-35.33,158.69-35.49,59.43-14.67,143.51-62.17,250.43-141.4-8.43,42.81-19.05,84.85-31.71,125.61-33.44,107.58-80.87,206.3-140.96,293.41-58.46,84.75-126.99,155.76-203.68,211.07-76.3,55.03-158.33,92.73-243.81,112.06-44.77,10.12-91.31,15.26-138.31,15.26h0Z"/>
        <path class="cls-1" d="m401.11,871.69c16.94-39.14,50.54-98.73,76.48-126.72,43.66-47.1,79.83-58.67,134.57-76.18,71.26-22.8,159.94-51.17,254.17-154.62,6.62-7.26,13.26-14.9,20.29-22.97,33.25-38.21,78.78-90.53,123.55-100.54,2.2-.49,6.3-1.31,11.96-2.44l.16-.03c8.61-1.72,21.62-4.32,41.71-8.51,93.15-19.42,158.93-35.53,159.57-35.69,51.98-12.83,121-48.81,205.67-107.16-5.12,20.19-10.73,40.13-16.81,59.68-32.69,105.16-79.01,201.6-137.67,286.63-56.83,82.39-123.36,151.35-197.72,204.99-73.56,53.05-152.52,89.37-234.7,107.95"/>
        <path class="cls-20" d="m423.78,871.69c13.82-26.86,53.41-89.5,72.15-109.72,39.2-42.29,71.06-52.48,123.86-69.37,74.1-23.71,166.31-53.21,265.03-161.6,6.8-7.46,13.53-15.19,20.64-23.37,29.25-33.61,73.41-84.36,110.17-92.58,1.93-.43,6.11-1.27,11.4-2.32l.22-.04c8.55-1.71,21.54-4.3,41.87-8.54,93.33-19.46,159.8-35.73,160.44-35.88,42.47-10.49,95.21-35.22,157.3-73.74-31.83,100.63-76.45,192.93-132.66,274.41-55.21,80.03-119.73,146.95-191.77,198.91-70.81,51.07-146.71,86.01-225.59,103.84"/>
        <path class="cls-7" d="m447.56,871.69c9.41-14.89,55.49-80.62,66.71-92.73,34.73-37.47,60.94-45.85,113.14-62.55,76.94-24.62,172.68-55.25,275.9-168.58,7.01-7.69,13.82-15.51,21.02-23.79,23.77-27.32,68.02-78.17,96.76-84.59,1.63-.37,5.83-1.2,10.69-2.17l.42-.08c8.56-1.71,21.56-4.31,42.03-8.58,93.79-19.55,160.63-35.91,161.3-36.08,30.53-7.54,65.87-21.88,105.54-42.8-28.53,74.08-64.53,142.81-107.43,205-53.58,77.67-116.1,142.55-185.81,192.83-68.07,49.09-140.9,82.65-216.48,99.74"/>
        <path class="cls-12" d="m462.89,883.56c2.95-3.59,66.63-84.27,69.71-87.59,30.27-32.66,51.39-39.41,102.42-55.74,79.77-25.52,179.04-57.29,286.76-175.55,7.22-7.92,14.11-15.84,21.4-24.21,11.88-13.66,28.16-32.36,44.98-48.51,24.57-23.6,35.59-27.47,38.38-28.09,1.37-.31,6.03-1.24,10.13-2.06l.47-.09c8.55-1.71,21.56-4.31,42.19-8.61,94.65-19.73,161.49-36.11,162.15-36.27,15.93-3.93,33.07-9.59,51.3-16.91-22.98,49.96-49.68,97.07-79.73,140.64-51.96,75.31-112.47,138.14-179.86,186.75-65.32,47.11-135.09,79.29-207.37,95.63"/>
        <path class="cls-6" d="m503,891c29.11-89.11,104.68-115.78,139.63-126.96,82.61-26.43,185.42-59.33,297.63-182.53,7.42-8.14,14.39-16.15,21.77-24.64,11.57-13.3,27.42-31.51,43.44-46.89,17.27-16.59,25.58-21.04,27.45-21.92,2.01-.42,6.2-1.25,8.64-1.74l.76-.15c8.6-1.72,21.61-4.32,42.11-8.59,82.77-17.26,144.5-31.99,159.51-35.62-15.82,29.44-33.04,57.68-51.47,84.4-50.33,72.96-108.84,133.74-173.91,180.67"/>
      </g>
      <g class="wave-group-1">
        <path class="cls-23" d="m1106.25,452.44c-15.46,20.15-39.56,48.76-73.22,78.45-63.4,55.92-101.62,63.53-162.88,104.85-74.01,49.93-73.31,69.11-160.03,156.82-52.55,53.15-109.74,103.69-177.95,134.24,153.66,116.06,367.05,104.23,499.75-21.8,119.56-113.54,151.14-298.4,74.33-452.56Z"/>
        <path class="cls-26" d="m771.34,982.12s0,0,0,0c-39.51,0-78.59-6.28-116.15-18.65-25.88-8.53-50.65-19.84-74-33.77,57.72-33.43,106.02-78.41,146.71-119.56,32.21-32.58,52.6-55.9,68.98-74.64,27.71-31.7,42.98-49.16,87.26-79.04,22.27-15.02,41.66-25.55,60.41-35.74,32.7-17.76,63.58-34.53,105.02-71.09,17.6-15.52,34.33-32.22,50.01-49.89,9.18,24.6,15.72,50.07,19.53,76.09,5.56,37.97,5.21,76.33-1.05,114.01-6.24,37.53-18.17,73.42-35.47,106.68-17.65,33.92-40.49,64.32-67.89,90.34-64.67,61.42-151.11,95.25-243.37,95.25Z"/>
        <path class="cls-33" d="m771.34,957.12h0c-36.85,0-73.3-5.85-108.33-17.4-10.82-3.57-21.47-7.67-31.89-12.29,44.61-31.19,82.44-67.23,114.56-99.72,32.76-33.14,53.42-56.77,70.02-75.76,27.19-31.1,40.83-46.71,82.42-74.77,21.27-14.35,40.13-24.59,58.36-34.49,33.98-18.45,66.07-35.88,109.63-74.31,7.51-6.63,14.9-13.48,22.13-20.54,2.54,10.44,4.59,21,6.15,31.62,5.19,35.4,4.86,71.17-.98,106.29"/>
        <path class="cls-19" d="m771.34,932.12c-30.01,0-59.73-4.18-88.53-12.45,30.88-25.09,57.61-51.08,80.64-74.38,33.31-33.69,54.24-57.64,71.07-76.89,26.57-30.39,38.69-44.26,77.58-70.49,20.28-13.68,38.6-23.63,56.31-33.25,32.29-17.54,62.93-34.18,102.95-67.81,2.91,28.32,2.03,56.78-2.62,84.8"/>
        <path class="cls-25" d="m771.34,907.12c-11.29,0-22.54-.64-33.72-1.93,16.62-15.3,31.35-29.92,43.62-42.33,33.86-34.25,55.07-58.51,72.11-78.01,25.85-29.57,36.55-41.81,72.73-66.22,19.3-13.02,37.07-22.67,54.26-32,22.05-11.98,43.3-23.52,67.2-40.05"/>
        <path class="cls-3" d="m798.71,880.74c.1-.1.2-.2.29-.3,34.39-34.78,55.88-59.37,73.15-79.12,25.05-28.65,34.42-39.37,67.9-61.96,20.66-13.94,37.29-22.89,52.21-30.76,13.46-7.09,30.84-15.7,51.65-24.6"/>
        <path class="cls-9" d="m843.92,870c20.71-21.73,36.43-39.7,47.04-52.21,10.18-11.99,18.32-22.08,32.36-34.52,4.27-3.78,14.25-12.36,30.71-23.19,32.51-21.38,67.11-36.31,89.88-45.09"/>
        <path class="cls-35" d="m864.58,891.22c20.71-21.73,36.43-39.7,47.04-52.21,10.18-11.99,18.32-22.08,32.36-34.52,4.27-3.78,14.25-12.36,30.71-23.19,32.51-21.38,67.11-36.31,89.88-45.09"/>
        <path class="cls-30" d="m885.23,912.44c20.71-21.73,36.43-39.7,47.04-52.21,10.18-11.99,18.32-22.08,32.36-34.52,4.27-3.78,14.25-12.36,30.71-23.19,32.51-21.38,67.11-36.31,89.88-45.09"/>
        <path class="cls-31" d="m905.88,933.65c20.71-21.73,36.43-39.7,47.04-52.21,10.18-11.99,18.32-22.08,32.36-34.52,4.27-3.78,14.25-12.36,30.71-23.19,32.51-21.38,67.11-36.31,89.88-45.09"/>
      </g>
      <g>
        <path class="cls-37" d="m710.31,732.75c0,6.7-2.57,12.6-10.28,12.6-12.52,0-6.91-13.72-15.58-13.72-6.26,0-8.51,8.77-8.51,17.55v31.9c0,6.7,8.03,7.98,8.03,11.96v.64c0,1.75-1.44,2.71-3.53,2.71h-29.71c-2.25,0-3.69-.96-3.69-2.71v-.64c0-3.99,6.26-5.27,6.26-11.96v-37.33c0-7.02-7.39-7.5-7.39-11.48v-.64c0-1.59,1.28-2.87,3.37-3.83l19.27-8.93c3.69-1.75,5.14.16,5.14,3.19v11.96c3.53-10.21,11.08-15.8,21.84-15.8,9.47,0,14.77,6.38,14.77,14.51h0Z"/>
        <path class="cls-37" d="m721.53,793.69v-.64c0-3.99,6.1-5.27,6.1-12.12v-36.06c0-7.02-6.1-8.77-6.1-12.28v-.48c0-1.43,1.28-2.23,3.37-3.35l20.07-9.89c4.02-1.91,6.59.32,6.59,3.19v58.87c0,6.86,6.75,8.14,6.75,12.12v.64c0,1.59-1.44,2.71-3.69,2.71h-29.55c-2.09,0-3.53-1.12-3.53-2.71h0Zm2.25-99.23c0-7.98,6.43-13.88,15.9-13.88s15.58,5.91,15.58,13.88-6.1,14.04-15.58,14.04-15.9-5.91-15.9-14.04Z"/>
        <path class="cls-37" d="m856.91,756.84c0,24.56-17.34,41.16-37.42,41.16-8.99,0-15.9-3.03-21.03-8.46v3.51c0,2.55-1.28,3.51-3.69,3.51l-20.71-.16c-2.09,0-3.37-.96-3.37-2.71v-.48c0-3.83,6.27-5.43,6.27-12.28v-78.16c0-7.18-7.39-8.14-7.39-12.12v-.48c0-1.75.8-2.55,3.69-3.83l20.71-9.57c3.69-1.75,6.75-.8,6.75,3.19v44.67c4.49-4.14,11.08-6.38,18.79-6.38,18.63,0,37.42,13.56,37.42,38.61h0Zm-23.44,9.57c0-20.1-6.91-41.32-19.75-41.32-7.39,0-13,6.54-13,16.11v28.88c0,10.85,8.03,21.06,16.38,21.06,10.44,0,16.38-8.77,16.38-24.73h0Z"/>
        <path class="cls-37" d="m952.64,792.69c0,3.69-5.3,4.66-14.31,4.66s-13.83-2.57-14.31-10.43c-4.34,7.06-12.21,11.07-23.31,11.07-16.55,0-29.9-11.4-29.9-33.38v-27.12c0-7.06-6.27-8.67-6.27-12.2v-.48c0-1.61,1.28-3.05,3.38-3.37l20.26-3.05c4.18-.48,6.59.16,6.59,2.89l-.48,45.74c0,14.92,4.5,21.82,13.34,21.82,7.71,0,13.82-7.38,13.82-18.77v-32.57c0-7.06-6.43-8.67-6.43-12.2v-.48c0-1.61,1.28-3.05,3.21-3.37l20.58-3.05c4.18-.48,6.11.16,6.11,2.89v58.73c0,12.68,7.71,6.74,7.71,12.68h-.01Z"/>
        <path class="cls-37" d="m630.99,719.83h-16.09c-1.32,0-2.39-1.06-2.4-2.36l-.14-13.44v-.07c-.03-2.62-3.11-4.07-5.23-2.51-9.38,6.92-18.75,13.83-28.13,20.74-.83.61-1.32,1.58-1.32,2.61,0,2.35,1.92,4.27,4.29,4.27h4.06c1.33,0,2.4,1.07,2.4,2.38v24.51c0,1.77,1.88,2.93,3.47,2.14,2.27-1.14,4.53-2.47,6.71-3.99,2.4-1.67,4.62-3.49,6.62-5.42,4.67-4.52,7.29-10.75,7.29-17.24,0-.66.27-1.25.7-1.69.44-.43,1.04-.7,1.7-.7h16.07c1.77,0,3.21-1.28,3.21-3.19v-2.71c0-1.91-1.44-3.35-3.21-3.35h0Z"/>
        <path class="cls-37" d="m637.41,774.7c0,11.48-8.67,23.3-24.73,23.3-13.22,0-22.38-7.7-23.99-22.65-.03-.22-.05-.45-.07-.68-.13-1.34.87-2.53,2.23-2.61,2.11-.13,4.67-.49,7.45-1.35,4.73-1.46,6.57-2.76,8.91-4.38,1.27-.88,2.37-1.77,3.31-2.61.77-.69,2-.15,2,.89v6.13c0,6.38,3.53,10.21,8.18,10.21,6.33,0,9.54-3.41,10.87-7.01.04-.11.1-.22.17-.31,1.96-2.54,5.67-1.87,5.67,1.1Z"/>
      </g>
    </g>
  </g>
</svg>